<svg xmlns="http://www.w3.org/2000/svg" viewBox="0 0 159.12 49.3"><defs><style>.cls-1{fill:#231f20;}</style></defs><title>Comonent e-shop</title><g id="Layer_2" data-name="Layer 2"><g id="Layer_1_copy" data-name="Layer 1 copy"><path class="cls-1" d="M15.23,11.08l6.43.17A12.55,12.55,0,0,1,18.2,19a10.17,10.17,0,0,1-7.36,2.72A10.52,10.52,0,0,1,3.11,18.6,10.44,10.44,0,0,1,0,10.91,10.53,10.53,0,0,1,3.17,3.15,10.67,10.67,0,0,1,11,0a10.3,10.3,0,0,1,7.63,3.09,12.1,12.1,0,0,1,3,5.95L15,9.48c-.74-2.26-2.13-3.4-4.19-3.4A4.27,4.27,0,0,0,7.59,7.45a4.87,4.87,0,0,0-1.28,3.46,4.69,4.69,0,0,0,1.26,3.36,4.21,4.21,0,0,0,3.18,1.32,4.21,4.21,0,0,0,3.11-1.16A5.34,5.34,0,0,0,15.23,11.08Z"/><path class="cls-1" d="M31.3,5.77a7.46,7.46,0,0,1,5.5,2.31,7.55,7.55,0,0,1,2.3,5.53,7.56,7.56,0,0,1-2.33,5.57,8,8,0,0,1-11.22,0,7.55,7.55,0,0,1-2.33-5.56A7.49,7.49,0,0,1,25.55,8,7.92,7.92,0,0,1,31.3,5.77Zm-.15,5.58a2.06,2.06,0,0,0-1.54.66A2.22,2.22,0,0,0,29,13.62a2.24,2.24,0,0,0,.65,1.61,2.05,2.05,0,0,0,1.53.66,2.08,2.08,0,0,0,1.55-.66,2.33,2.33,0,0,0,0-3.22A2.07,2.07,0,0,0,31.15,11.35Z"/><path class="cls-1" d="M62.17,21.18H56.51V13a3,3,0,0,0-.2-1.3.74.74,0,0,0-.71-.36q-1,0-1,1.68v8.13H49V13a3,3,0,0,0-.2-1.3.76.76,0,0,0-.72-.36c-.63,0-.94.56-.94,1.68v8.13H41.46v-9.3a6,6,0,0,1,1.71-4.32,5.56,5.56,0,0,1,4.15-1.78A6.08,6.08,0,0,1,51.83,7.9a6.53,6.53,0,0,1,4.45-2.12,5.61,5.61,0,0,1,4.54,2.06,7.1,7.1,0,0,1,1.35,4.68Z"/><path class="cls-1" d="M70.81,26.76H65.15V14.17A8.55,8.55,0,0,1,67,8.52a7.56,7.56,0,0,1,2.66-2,7.93,7.93,0,0,1,3.31-.74,7.82,7.82,0,0,1,5.69,2.27,7.53,7.53,0,0,1,2.32,5.57,7.62,7.62,0,0,1-2.3,5.54,7.4,7.4,0,0,1-5.45,2.33c-.35,0-.85,0-1.52-.1V15.15a2.2,2.2,0,0,0,1.39.56,2,2,0,0,0,1.51-.65,2.14,2.14,0,0,0,.63-1.54A2,2,0,0,0,74.55,12,2.18,2.18,0,0,0,73,11.37c-1.45,0-2.18,1-2.18,3Z"/><path class="cls-1" d="M90.58,5.77a7.47,7.47,0,0,1,5.5,2.31,7.54,7.54,0,0,1,2.29,5.53,7.55,7.55,0,0,1-2.32,5.57,8,8,0,0,1-11.22,0,7.52,7.52,0,0,1-2.33-5.56A7.45,7.45,0,0,1,84.83,8,7.92,7.92,0,0,1,90.58,5.77Zm-.15,5.58a2.08,2.08,0,0,0-1.55.66,2.36,2.36,0,0,0,0,3.22,2.07,2.07,0,0,0,1.54.66A2.1,2.1,0,0,0,92,15.23,2.36,2.36,0,0,0,92,12,2.1,2.1,0,0,0,90.43,11.35Z"/><path class="cls-1" d="M114.19,21.18h-5.66V12.65c0-.86-.36-1.3-1.07-1.3s-1.06.44-1.06,1.3v8.53h-5.67V12.76a6.89,6.89,0,0,1,2-5,6.8,6.8,0,0,1,10,.32,7.72,7.72,0,0,1,1.53,5.1Z"/><path class="cls-1" d="M132.33,14.55h-8.59a4,4,0,0,1,.08-2.68h2.87a1.78,1.78,0,0,0-1.89-1.68,2,2,0,0,0-1.72.9,3.74,3.74,0,0,0-.67,2.31,4.05,4.05,0,0,0,.64,2.37,2,2,0,0,0,1.69.91,2.25,2.25,0,0,0,1.64-.85l3.22,3.88a7.91,7.91,0,0,1-5,1.77,7.72,7.72,0,0,1-5.65-2.26,7.53,7.53,0,0,1-2.28-5.58A7.57,7.57,0,0,1,119,8a7.73,7.73,0,0,1,5.67-2.29,7.63,7.63,0,0,1,7.75,7.74C132.39,13.71,132.37,14.06,132.33,14.55Z"/><path class="cls-1" d="M148.13,21.18h-5.66V12.65c0-.86-.36-1.3-1.08-1.3s-1.06.44-1.06,1.3v8.53h-5.66V12.76a6.88,6.88,0,0,1,2-5,6.81,6.81,0,0,1,10,.32,7.72,7.72,0,0,1,1.53,5.1Z"/><path class="cls-1" d="M156.47.51V6.3H159v6h-2.54a4,4,0,0,0,.57,2.48,2.61,2.61,0,0,0,2.08.68v6h-.65a7.64,7.64,0,0,1-3.63-.89,7.27,7.27,0,0,1-2.73-2.42,9.18,9.18,0,0,1-1.3-5.18V.51Z"/><path class="cls-1" d="M58.66,39.84H52a3.2,3.2,0,0,1-.15-.92,3.25,3.25,0,0,1,.21-1.15H54.3a1.38,1.38,0,0,0-1.47-1.3,1.57,1.57,0,0,0-1.33.7A2.87,2.87,0,0,0,51,39a3.13,3.13,0,0,0,.5,1.84,1.54,1.54,0,0,0,1.31.71,1.72,1.72,0,0,0,1.26-.66l2.5,3a6.15,6.15,0,0,1-3.88,1.37,6,6,0,0,1-4.37-1.75,5.81,5.81,0,0,1-1.77-4.32,5.89,5.89,0,0,1,1.79-4.34A6,6,0,0,1,52.71,33a5.91,5.91,0,0,1,6,6C58.71,39.19,58.69,39.47,58.66,39.84Z"/><path class="cls-1" d="M64.55,36.33v3.1H59.2v-3.1Z"/><path class="cls-1" d="M73.15,33.46v4.61a1.8,1.8,0,0,0-1.27.35,2.31,2.31,0,0,0-.44,1.36,5.77,5.77,0,0,1-2.62,4.79,7,7,0,0,1-3.49.72h-.61V40.65h.2a2.07,2.07,0,0,0,1.5-.44,2.28,2.28,0,0,0,.52-1.54,11.35,11.35,0,0,1,.34-2.52,3.63,3.63,0,0,1,1-1.44,4.89,4.89,0,0,1,3.57-1.25Z"/><path class="cls-1" d="M79,29v4.89a3.75,3.75,0,0,1,2.22-.81,3.25,3.25,0,0,1,2.68,1.22,5.06,5.06,0,0,1,1,3.29V45H80.48V38.8a2.1,2.1,0,0,0-.16-1,.66.66,0,0,0-.61-.26c-.5,0-.74.37-.74,1.09V45H74.58V29Z"/><path class="cls-1" d="M93,33.05a5.78,5.78,0,0,1,4.26,1.78,6.08,6.08,0,0,1,0,8.6,6.18,6.18,0,0,1-8.69,0,6,6,0,0,1,0-8.62A6.12,6.12,0,0,1,93,33.05Zm-.12,4.32a1.59,1.59,0,0,0-1.19.51,1.8,1.8,0,0,0,0,2.49,1.63,1.63,0,0,0,2.39,0,1.69,1.69,0,0,0,.5-1.24,1.73,1.73,0,0,0-.49-1.25A1.62,1.62,0,0,0,92.84,37.37Z"/><path class="cls-1" d="M105,49.3h-4.39V39.55A6.57,6.57,0,0,1,102,35.18,5.87,5.87,0,0,1,104,33.63a6.08,6.08,0,0,1,2.56-.57,6,6,0,0,1,4.4,1.76,5.79,5.79,0,0,1,1.8,4.31A6,6,0,0,1,111,43.42a5.75,5.75,0,0,1-4.22,1.8c-.27,0-.66,0-1.17-.08V40.31a1.71,1.71,0,0,0,1.07.44,1.55,1.55,0,0,0,1.17-.51,1.66,1.66,0,0,0,.49-1.19,1.57,1.57,0,0,0-.51-1.18,1.65,1.65,0,0,0-1.2-.49c-1.13,0-1.69.78-1.69,2.33Z"/></g></g></svg>